<svg width="191" height="373" viewBox="0 0 191 373" fill="none" xmlns="http://www.w3.org/2000/svg">
<g clip-path="url(#clip0)">
<circle cx="51.595" cy="11.1731" r="8.37983" stroke="#7F7F7F" stroke-width="5.58655"/>
<circle cx="79.6868" cy="27.9348" r="8.37983" stroke="#7F7F7F" stroke-width="5.58655"/>
<circle cx="80.7239" cy="58.5813" r="8.37983" stroke="#7F7F7F" stroke-width="5.58655"/>
<circle cx="23.8997" cy="58.5813" r="8.37983" stroke="#7F7F7F" stroke-width="5.58655"/>
<circle cx="52.3118" cy="75.8176" r="8.37983" stroke="#7F7F7F" stroke-width="5.58655"/>
<circle cx="23.5012" cy="27.9348" r="8.37983" stroke="#7F7F7F" stroke-width="5.58655"/>
<circle cx="45.6478" cy="32.9212" r="3.95049" fill="#52C8FA"/>
<circle cx="57.1399" cy="32.0442" r="3.95049" fill="#52C8FA"/>
<circle cx="63.1263" cy="41.8587" r="3.95049" fill="#52C8FA"/>
<circle cx="58.0169" cy="51.597" r="3.95049" fill="#52C8FA"/>
<circle cx="46.6849" cy="51.597" r="3.95049" fill="#52C8FA"/>
<circle cx="40.4603" cy="42.2591" r="3.95049" fill="#52C8FA"/>
<path d="M12.2707 116.422C8.61645 115.371 5.95343 114.084 4.28165 112.56C2.62466 111.022 1.79617 109.128 1.79617 106.879C1.79617 104.335 2.80959 102.234 4.83645 100.577C6.87809 98.905 9.52631 98.0691 12.7811 98.0691C15.0003 98.0691 16.9754 98.4981 18.7063 99.3562C20.4521 100.214 21.7984 101.398 22.7452 102.907C23.7069 104.416 24.1877 106.066 24.1877 107.856H19.9047C19.9047 105.903 19.2833 104.372 18.0406 103.262C16.7978 102.138 15.0447 101.575 12.7811 101.575C10.6803 101.575 9.0381 102.041 7.85453 102.973C6.68576 103.891 6.10138 105.17 6.10138 106.813C6.10138 108.129 6.65617 109.246 7.76576 110.164C8.89015 111.066 10.7912 111.895 13.4691 112.649C16.1617 113.404 18.2625 114.24 19.7715 115.157C21.2954 116.059 22.4198 117.117 23.1447 118.33C23.8844 119.543 24.2543 120.971 24.2543 122.613C24.2543 125.232 23.2335 127.333 21.1918 128.916C19.1502 130.484 16.4206 131.268 13.003 131.268C10.7839 131.268 8.71262 130.846 6.78933 130.003C4.86603 129.145 3.37918 127.976 2.32877 126.497C1.29315 125.017 0.775345 123.338 0.775345 121.459H5.05836C5.05836 123.412 5.7759 124.958 7.21097 126.097C8.66083 127.222 10.5915 127.784 13.003 127.784C15.2518 127.784 16.9754 127.325 18.1737 126.408C19.3721 125.491 19.9713 124.241 19.9713 122.658C19.9713 121.075 19.4165 119.854 18.3069 118.996C17.1973 118.123 15.1852 117.265 12.2707 116.422ZM47.9995 115.889H33.9965V127.34H50.2631V130.824H29.7357V98.5129H50.0412V102.019H33.9965V112.405H47.9995V115.889ZM78.3357 102.019H67.95V130.824H63.7113V102.019H53.3477V98.5129H78.3357V102.019ZM107.962 130.824H103.679V115.889H87.39V130.824H83.1292V98.5129H87.39V112.405H103.679V98.5129H107.962V130.824Z" fill="#52C8FA"/>
</g>
<defs>
<clipPath id="clip0">
<rect width="190.929" height="373" fill="white"/>
</clipPath>
</defs>
</svg>
