<svg width="191" height="373" viewBox="0 0 191 373" fill="none" xmlns="http://www.w3.org/2000/svg">
<g clip-path="url(#clip0)">
<circle cx="52.9818" cy="11.2553" r="8.44147" stroke="#A4A4A4" stroke-width="5.62764"/>
<circle cx="81.2787" cy="28.1361" r="8.44147" stroke="#A4A4A4" stroke-width="5.62764"/>
<circle cx="82.3256" cy="59.0111" r="8.44147" stroke="#A4A4A4" stroke-width="5.62764"/>
<circle cx="25.0834" cy="59.0111" r="8.44147" stroke="#A4A4A4" stroke-width="5.62764"/>
<circle cx="53.7026" cy="76.3764" r="8.44147" stroke="#A4A4A4" stroke-width="5.62764"/>
<circle cx="24.683" cy="28.1361" r="8.44147" stroke="#A4A4A4" stroke-width="5.62764"/>
<circle cx="46.9932" cy="33.1631" r="3.97955" fill="#8CDDFF"/>
<circle cx="58.5694" cy="32.2784" r="3.97955" fill="#8CDDFF"/>
<circle cx="64.5967" cy="42.167" r="3.97955" fill="#8CDDFF"/>
<circle cx="59.4522" cy="51.9756" r="3.97955" fill="#8CDDFF"/>
<circle cx="48.0381" cy="51.9756" r="3.97955" fill="#8CDDFF"/>
<circle cx="41.7647" cy="42.5694" r="3.97955" fill="#8CDDFF"/>
<path d="M13.3683 117.972C9.68719 116.914 7.00458 115.617 5.3205 114.082C3.65132 112.532 2.81674 110.625 2.81674 108.359C2.81674 105.796 3.83762 103.68 5.87938 102.011C7.93604 100.326 10.6037 99.4844 13.8825 99.4844C16.118 99.4844 18.1076 99.9166 19.8513 100.781C21.6099 101.645 22.9661 102.838 23.9199 104.358C24.8886 105.878 25.373 107.54 25.373 109.343H21.0585C21.0585 107.376 20.4325 105.833 19.1806 104.716C17.9287 103.583 16.1627 103.017 13.8825 103.017C11.7662 103.017 10.1119 103.486 8.91966 104.425C7.7423 105.349 7.15361 106.638 7.15361 108.292C7.15361 109.619 7.71249 110.744 8.83024 111.668C9.9629 112.577 11.878 113.412 14.5755 114.172C17.2879 114.932 19.4042 115.774 20.9243 116.698C22.4594 117.607 23.592 118.673 24.3223 119.895C25.0675 121.117 25.44 122.555 25.44 124.209C25.44 126.847 24.4117 128.963 22.355 130.558C20.2984 132.138 17.5487 132.928 14.106 132.928C11.8705 132.928 9.78406 132.503 7.84662 131.653C5.90918 130.789 4.4114 129.612 3.35326 128.121C2.31002 126.631 1.7884 124.939 1.7884 123.047H6.10293C6.10293 125.014 6.82574 126.571 8.27137 127.719C9.7319 128.851 11.6768 129.418 14.106 129.418C16.3713 129.418 18.1076 128.956 19.3148 128.032C20.5219 127.108 21.1255 125.848 21.1255 124.254C21.1255 122.659 20.5666 121.43 19.4489 120.565C18.3311 119.686 16.3043 118.822 13.3683 117.972ZM49.3599 117.436H35.2539V128.971H51.6402V132.48H30.9617V99.9315H51.4166V103.464H35.2539V113.926H49.3599V117.436ZM79.9193 103.464H69.4571V132.48H65.1873V103.464H54.7475V99.9315H79.9193V103.464ZM109.763 132.48H105.449V117.436H89.0401V132.48H84.748V99.9315H89.0401V113.926H105.449V99.9315H109.763V132.48Z" fill="#8CDDFF"/>
</g>
<defs>
<clipPath id="clip0">
<rect width="191" height="373" fill="white"/>
</clipPath>
</defs>
</svg>
